<svg version="1.2" xmlns="http://www.w3.org/2000/svg" viewBox="0 0 24 18" width="24" height="18"><style>.s0{fill:#b99403}</style><path class="s0" d="m23.7 17.3l-8.2-8.3l6.1-6.1l2.2-2.2c0.1 0.3 0.2 0.5 0.2 0.8v15c0 0.3-0.1 0.6-0.3 0.8zm-2.6-14.9l-2.8 2.8l-5.4 5.3l-0.9 0.9l-9.1-9l-1.5-1.5l-0.6-0.7q0.3-0.2 0.7-0.2h21q0.4 0 0.7 0.2l-0.7 0.8zm-20.2-1l7.6 7.6l-8.3 8.2q-0.2-0.3-0.2-0.7v-15q0-0.4 0.2-0.8l0.7 0.7zm8.1 8.1l0.3 0.3l0.1 0.2l1.1 1l1.5 1.5v-0.1l1.5-1.4l1.4-1.5l8.3 8.3q-0.3 0.2-0.7 0.2h-21q-0.4 0-0.7-0.2z" /></svg>