<svg version="1.2" xmlns="http://www.w3.org/2000/svg" viewBox="0 0 83 83" width="83" height="83"><style>.s0{fill:#f5c506}</style><path class="s0" d="m0 55l13.1-13.5l-13.1-13.5h11.1l13.1 13.5l-13.1 13.5zm16.8 0l13.1-13.5l-13.1-13.5h11.1l13.1 13.5l-13.1 13.5zm55.1 0l-13.1-13.5l13.1-13.5h11.1l-13.1 13.5l13.1 13.5zm-16.8 0l-13.1-13.5l13.1-13.5h11.1l-13.1 13.5l13.1 13.5zm-27.1-55l13.5 13.1l13.5-13.1v11.1l-13.5 13.1l-13.5-13.1zm0 16.8l13.5 13.1l13.5-13.1v11.1l-13.5 13.1l-13.5-13.1zm0 55.1l13.5-13.1l13.5 13.1v11.1l-13.5-13.1l-13.5 13.1zm0-16.8l13.5-13.1l13.5 13.1v11.1l-13.5-13.1l-13.5 13.1z" /></svg>