<svg version="1.2" xmlns="http://www.w3.org/2000/svg" viewBox="0 0 79 79" width="79" height="79"><style>.s0{opacity: .5;fill:#f5c506}</style><path class="s0" d="m0.2 20.3l18.8-0.7l-0.2-18.8l8 7.6l0.2 18.8l-18.8 0.8zm12.2 11.6l18.7-0.7l-0.1-18.8l8 7.7l0.2 18.7l-18.8 0.8zm39.8 38l-0.1-18.8l18.7-0.7l8.1 7.7l-18.8 0.7l0.1 18.8zm-12.2-11.6l-0.1-18.8l18.8-0.7l8 7.6l-18.8 0.7l0.2 18.8zm18.4-58.4l0.7 18.7l18.8-0.1l-7.7 8l-18.7 0.2l-0.8-18.8zm-11.6 12.2l0.7 18.7l18.8-0.1l-7.7 8l-18.8 0.2l-0.7-18.8zm-38 39.8l18.8-0.1l0.7 18.7l-7.7 8.1l-0.7-18.8l-18.8 0.1zm11.6-12.2l18.8-0.1l0.7 18.8l-7.6 8l-0.7-18.8l-18.8 0.2z" /></svg>